<?xml version="1.0"?>
<svg xmlns="http://www.w3.org/2000/svg" viewBox="0 0 16 16">
    <path style="line-height:normal;text-indent:0;text-align:start;text-decoration-line:none;text-decoration-style:solid;text-decoration-color:#000;text-transform:none;block-progression:tb;isolation:auto;mix-blend-mode:normal" d="M 8.5 1 C 7.8124025 1 7.2324265 1.4754945 7.0585938 2.1113281 C 6.8855405 2.0409106 6.697014 2 6.5 2 C 5.6774686 2 5 2.6774686 5 3.5 L 5 5.8085938 L 3.5390625 7.4140625 A 0.50005 0.50005 0 0 0 3.5117188 7.4453125 C 3.1561139 7.9062332 3 8.4506984 3 9 C 3 9.8709416 3.542025 10.700976 4.0351562 11.40625 C 4.5114418 12.087431 4.9544553 12.575971 4.9863281 12.611328 C 5.6770099 13.567563 6.8688679 14 8 14 L 10 14 C 12.189116 14 14 12.214424 14 10.021484 L 14 4.5 C 14 3.6774686 13.322531 3 12.5 3 C 12.302986 3 12.11446 3.0409106 11.941406 3.1113281 C 11.767573 2.4754945 11.187597 2 10.5 2 C 10.297172 2 10.102984 2.0427816 9.9257812 2.1171875 C 9.7723382 1.6316707 9.3528043 1.280004 8.8417969 1.1425781 A 0.50005 0.50005 0 0 0 8.5 1 z M 8.5 2 C 8.7814686 2 9 2.2185314 9 2.5 L 9 7 L 10 7 L 10 4.875 L 10 3.5 C 10 3.2185314 10.218531 3 10.5 3 C 10.781469 3 11 3.2185314 11 3.5 L 11 4.5 L 11 7 L 12 7 L 12 5.375 L 12 4.5 C 12 4.2185314 12.218531 4 12.5 4 C 12.781469 4 13 4.2185314 13 4.5 L 13 10.021484 C 13 11.664545 11.646884 13 10 13 L 8 13 C 7.1331321 13 6.2401932 12.639156 5.796875 12.025391 A 0.50005 0.50005 0 0 0 5.7617188 11.984375 C 5.7617188 11.984375 5.3078375 11.48096 4.8554688 10.833984 C 4.4030997 10.187012 4 9.3580584 4 9 C 4 8.6260029 4.0871979 8.3392012 4.3046875 8.0566406 C 4.3046875 8.0566406 4.3046875 8.0546875 4.3046875 8.0546875 L 5 7.2910156 L 5 9 L 6 9 L 6 3.5 C 6 3.2185314 6.2185314 3 6.5 3 C 6.7814686 3 7 3.2185314 7 3.5 L 7 7 L 8 7 L 8 3.5 L 8 2.5 C 8 2.2185314 8.2185314 2 8.5 2 z" font-weight="400" font-family="sans-serif" white-space="normal" overflow="visible"/>
</svg>
