<?xml version="1.0"?>
<svg xmlns="http://www.w3.org/2000/svg" viewBox="0 0 16 16">
    <path style="line-height:normal;text-indent:0;text-align:start;text-decoration-line:none;text-decoration-style:solid;text-decoration-color:#000;text-transform:none;block-progression:tb;isolation:auto;mix-blend-mode:normal" d="M 5.5 4 C 4.6774686 4 4 4.6774686 4 5.5 L 4 7.5 C 4 7.7013234 4.0418697 7.8941766 4.1152344 8.0703125 C 4.0070741 8.0966178 3.9021665 8.115323 3.7773438 8.1777344 C 3.4080867 8.3623629 3 8.8333333 3 9.5 C 3 12.672111 4.6984918 14 6 14 L 9.5 14 C 10.628417 14 11.535245 13.546473 12.125 12.876953 C 12.714755 12.207434 13 11.343733 13 10.5 L 13 8.5 L 13 6.5 C 13 5.6774686 12.322531 5 11.5 5 C 11.302986 5 11.11446 5.0409106 10.941406 5.1113281 C 10.767573 4.4754945 10.187597 4 9.5 4 C 9.1159078 4 8.7666173 4.1513388 8.5 4.3925781 C 8.2333827 4.1513388 7.8840922 4 7.5 4 C 7.1159078 4 6.7666173 4.1513388 6.5 4.3925781 C 6.2333827 4.1513388 5.8840922 4 5.5 4 z M 5.5 5 C 5.7814686 5 6 5.2185314 6 5.5 L 6 7.5 C 6 7.7814686 5.7814686 8 5.5 8 C 5.2185314 8 5 7.7814686 5 7.5 L 5 5.5 C 5 5.2185314 5.2185314 5 5.5 5 z M 7.5 5 C 7.7814686 5 8 5.2185314 8 5.5 L 8 7.5 C 8 7.7814686 7.7814686 8 7.5 8 C 7.2185314 8 7 7.7814686 7 7.5 L 7 5.5 C 7 5.2185314 7.2185314 5 7.5 5 z M 9.5 5 C 9.7814686 5 10 5.2185314 10 5.5 L 10 6.5 L 10 7.5 C 10 7.7814686 9.7814686 8 9.5 8 C 9.2185314 8 9 7.7814686 9 7.5 L 9 5.5 C 9 5.2185314 9.2185314 5 9.5 5 z M 11.5 6 C 11.781469 6 12 6.2185314 12 6.5 L 12 8.5 C 12 8.7814686 11.781469 9 11.5 9 C 11.218531 9 11 8.7814686 11 8.5 L 11 7.5 L 11 6.5 C 11 6.2185314 11.218531 6 11.5 6 z M 8.5 8.6074219 C 8.7666173 8.8486612 9.1159078 9 9.5 9 C 9.6970139 9 9.8855405 8.9590894 10.058594 8.8886719 C 10.232427 9.5245055 10.812403 10 11.5 10 C 11.67567 10 11.84275 9.9628665 12 9.90625 L 12 10.5 C 12 11.115267 11.785245 11.751066 11.375 12.216797 C 10.964755 12.682527 10.371583 13 9.5 13 L 6 13 C 5.3995082 13 4 12.327889 4 9.5 C 4 9.1666667 4.0919132 9.1376371 4.2226562 9.0722656 C 4.3533994 9.0068941 4.5 9 4.5 9 L 6.5 9 C 6.7814686 9 7 9.2185314 7 9.5 C 7 9.7814686 6.7814686 10 6.5 10 L 5 10 L 5 11 L 6.5 11 C 7.1850477 11 7.6753313 10.485787 7.8515625 9.8535156 A 0.50005 0.50005 0 0 0 8 9.5 C 8 9.302986 7.9590894 9.1144595 7.8886719 8.9414062 C 8.1190731 8.8784161 8.3270469 8.7639124 8.5 8.6074219 z"/>
</svg>
