<?xml version="1.0"?>
<svg xmlns="http://www.w3.org/2000/svg" viewBox="0 0 16 16">
    <path style="line-height:normal;text-indent:0;text-align:start;text-decoration-line:none;text-decoration-style:solid;text-decoration-color:#000;text-transform:none;block-progression:tb;isolation:auto;mix-blend-mode:normal" d="M 5.5 3 C 2.3278889 3 1 4.6984918 1 6 L 1 9.5 C 1 10.628417 1.4535273 11.535245 2.1230469 12.125 C 2.7925665 12.714755 3.6562665 13 4.5 13 L 6.5 13 L 8.5 13 C 9.3225314 13 10 12.322531 10 11.5 C 10 11.302986 9.9590894 11.11446 9.8886719 10.941406 C 10.524505 10.767573 11 10.187597 11 9.5 C 11 9.3243299 10.962867 9.15725 10.90625 9 L 12.5 9 C 13.322531 9 14 8.3225314 14 7.5 C 14 6.6774686 13.322531 6 12.5 6 L 11.675781 6 L 12.123047 5.8554688 C 12.123047 5.8554688 12.219917 5.8193465 12.294922 5.7734375 C 12.369922 5.7275285 12.460811 5.6589249 12.558594 5.5625 A 0.50005 0.50005 0 0 0 12.560547 5.5605469 C 13.142339 4.9787546 13.143072 4.0204889 12.560547 3.4394531 C 12.180864 3.0598135 11.646051 2.9517756 11.181641 3.0527344 A 0.50005 0.50005 0 0 0 11.144531 3.0625 L 6.984375 4.3105469 C 6.9671226 4.1728794 6.9283819 3.9895762 6.8222656 3.7773438 C 6.6376371 3.4080867 6.1666667 3 5.5 3 z M 5.5 4 C 5.8333333 4 5.8623629 4.0919132 5.9277344 4.2226562 C 5.9931059 4.3533994 6 4.5 6 4.5 L 6 6.5 C 6 6.7814686 5.7814686 7 5.5 7 C 5.2185314 7 5 6.7814686 5 6.5 L 5 5 L 4 5 L 4 6.5 C 4 7.1897347 4.5193835 7.6856233 5.1582031 7.8574219 A 0.50005 0.50005 0 0 0 5.5 8 C 6.3225314 8 7 7.3225314 7 6.5 L 7 5.3496094 L 11.396484 4.0292969 C 11.575195 3.9910059 11.733633 4.0265969 11.853516 4.1464844 C 12.05299 4.3454486 12.053723 4.6533079 11.853516 4.8535156 C 11.813506 4.8925366 11.79127 4.9076465 11.78125 4.9140625 L 8.3457031 6.0234375 A 0.50005 0.50005 0 0 0 8.5 7 L 12.5 7 C 12.781469 7 13 7.2185314 13 7.5 C 13 7.7814686 12.781469 8 12.5 8 L 9.5 8 L 7.5 8 C 6.6774686 8 6 8.6774686 6 9.5 C 6 9.6970139 6.0409106 9.8855405 6.1113281 10.058594 C 5.4754945 10.232427 5 10.812403 5 11.5 C 5 11.67567 5.0371335 11.84275 5.09375 12 L 4.5 12 C 3.8847335 12 3.2489335 11.785245 2.7832031 11.375 C 2.3174727 10.964755 2 10.371583 2 9.5 L 2 6 C 2 5.3995082 2.6721111 4 5.5 4 z M 7.5 9 L 9.5 9 C 9.7814686 9 10 9.2185314 10 9.5 C 10 9.7814686 9.7814686 10 9.5 10 L 8.5 10 L 7.5 10 C 7.2185314 10 7 9.7814686 7 9.5 C 7 9.2185314 7.2185314 9 7.5 9 z M 6.5 11 L 7.5 11 L 8.5 11 C 8.7814686 11 9 11.218531 9 11.5 C 9 11.781469 8.7814686 12 8.5 12 L 6.5 12 C 6.2185314 12 6 11.781469 6 11.5 C 6 11.218531 6.2185314 11 6.5 11 z" font-weight="400" font-family="sans-serif" white-space="normal" overflow="visible"/>
</svg>
